<svg width="18" height="19" viewBox="0 0 18 19" fill="none" xmlns="http://www.w3.org/2000/svg">
<path d="M17.1328 16.8478L11.2641 7.62469L17.055 1.25438C17.186 1.10674 17.2535 0.913434 17.2429 0.716365C17.2323 0.519295 17.1444 0.334346 16.9984 0.201615C16.8523 0.0688843 16.6598 -0.00092985 16.4627 0.00730857C16.2655 0.015547 16.0795 0.101174 15.945 0.245625L10.4288 6.31312L6.63282 0.347813C6.56513 0.24127 6.47164 0.153535 6.36103 0.0927355C6.25041 0.0319361 6.12623 3.91221e-05 6.00001 8.87202e-08H1.50001C1.36553 -6.53095e-05 1.23351 0.0360256 1.11777 0.104494C1.00204 0.172962 0.906835 0.271288 0.84214 0.389177C0.777445 0.507066 0.745636 0.64018 0.750044 0.774582C0.754451 0.908984 0.794913 1.03973 0.867193 1.15313L6.73594 10.3753L0.945006 16.7503C0.877381 16.823 0.824846 16.9083 0.790447 17.0014C0.756048 17.0945 0.740468 17.1935 0.744611 17.2927C0.748754 17.3918 0.772538 17.4892 0.814583 17.5791C0.856627 17.669 0.916097 17.7496 0.989546 17.8164C1.063 17.8831 1.14896 17.9346 1.24246 17.9679C1.33597 18.0012 1.43514 18.0156 1.53425 18.0103C1.63335 18.0049 1.73041 17.98 1.81981 17.9369C1.9092 17.8937 1.98914 17.8333 2.05501 17.7591L7.57126 11.6916L11.3672 17.6569C11.4354 17.7625 11.5292 17.8494 11.6397 17.9093C11.7503 17.9693 11.8742 18.0005 12 18H16.5C16.6343 18 16.7662 17.9638 16.8818 17.8954C16.9974 17.827 17.0925 17.7288 17.1572 17.611C17.2218 17.4933 17.2537 17.3604 17.2494 17.2261C17.2451 17.0918 17.2049 16.9612 17.1328 16.8478ZM12.4116 16.5L2.86594 1.5H5.58469L15.1341 16.5H12.4116Z" fill="white"/>
</svg>
